<?xml version="1.0" encoding="UTF-8"?>
<svg id="Camada_1" xmlns="http://www.w3.org/2000/svg" version="1.1" viewBox="0 0 192 192">
  <!-- Generator: Adobe Illustrator 29.8.1, SVG Export Plug-In . SVG Version: 2.1.1 Build 2)  -->
  <defs>
    <style>
      .st0 {
        fill: #fff;
      }

      .st1 {
        fill: #653e91;
      }
    </style>
  </defs>
  <circle class="st1" cx="96.22" cy="96.43" r="151.06"/>
  <g>
    <g>
      <path class="st0" d="M25.4,55.83v6.67h18.69v-6.67c0-6.48,5.27-11.74,11.74-11.74h6.67v-18.69h-6.67c-16.78,0-30.43,13.65-30.43,30.43Z"/>
      <path class="st0" d="M147.91,136.17c0,6.48-5.27,11.74-11.74,11.74h-6.67v18.69h6.67c16.78,0,30.43-13.65,30.43-30.43v-6.67h-18.69v6.67Z"/>
      <path class="st0" d="M136.17,25.4h-6.67v18.69h6.67c6.48,0,11.74,5.27,11.74,11.74v6.67h18.69v-6.67c0-16.78-13.65-30.43-30.43-30.43Z"/>
      <path class="st0" d="M44.09,136.17v-6.67h-18.69v6.67c0,16.78,13.65,30.43,30.43,30.43h6.67v-18.69h-6.67c-6.48,0-11.74-5.27-11.74-11.74Z"/>
    </g>
    <g>
      <path class="st0" d="M40.54,107.72c-5.64,0-10.31-1.58-13.98-4.75l4.11-7.12c3.34,2.35,6.39,3.53,9.17,3.53.98,0,1.75-.17,2.31-.51.56-.34.83-.77.83-1.28,0-.21-.04-.42-.13-.61-.09-.19-.25-.37-.48-.55-.24-.17-.46-.32-.67-.45-.21-.13-.52-.28-.93-.45-.41-.17-.76-.31-1.06-.42-.3-.11-.72-.25-1.25-.42-.54-.17-.97-.32-1.32-.45-2.87-1.03-5.06-2.26-6.58-3.69-1.52-1.43-2.28-3.35-2.28-5.74,0-3.29,1.27-5.9,3.82-7.83,2.54-1.92,5.89-2.89,10.04-2.89,5.09,0,9.43,1.3,13.02,3.91l-3.98,6.93c-3.12-1.8-5.9-2.69-8.34-2.69-.98,0-1.74.16-2.28.48-.54.32-.8.72-.8,1.19,0,.56.32,1.01.96,1.35.64.34,1.75.79,3.34,1.35,3.63,1.28,6.09,2.37,7.38,3.27,2.44,1.8,3.66,4.17,3.66,7.12,0,3.34-1.4,5.96-4.2,7.86-2.8,1.9-6.25,2.85-10.36,2.85Z"/>
      <path class="st0" d="M81.15,74.1c3.38,0,6.05.93,8.02,2.79,1.97,1.86,2.95,4.59,2.95,8.18v21.94h-11.61v-19.31c0-2.99-1.18-4.49-3.53-4.49-1.8,0-3.66.75-5.58,2.25v21.55h-11.67v-32.07h10.58v2.69c3.51-2.35,7.12-3.53,10.84-3.53Z"/>
      <path class="st0" d="M111.94,74.1c4.4,0,7.98,1.18,10.71,3.53,2.74,2.35,4.11,5.62,4.11,9.81v19.57h-9.88v-3.4c-2.44,2.74-5.64,4.11-9.62,4.11-3.34,0-6.01-.9-8.02-2.69-2.01-1.8-3.01-4.21-3.01-7.25,0-2.52.78-4.62,2.34-6.29,1.56-1.67,3.47-2.82,5.74-3.46,2.27-.64,4.83-.96,7.7-.96,1.67,0,3.1.09,4.3.26,0-1.54-.52-2.68-1.57-3.43-1.05-.75-2.36-1.12-3.95-1.12-3.04,0-6.18,1.13-9.43,3.4l-4.3-6.86c1.75-1.58,3.97-2.84,6.64-3.78,2.67-.94,5.42-1.41,8.24-1.41ZM110.47,99.44c1.5,0,2.79-.52,3.88-1.57,1.09-1.05,1.72-2.47,1.89-4.27h-3.59c-3.51,0-5.26,1.03-5.26,3.08,0,.81.27,1.48.8,1.99.53.51,1.29.77,2.28.77Z"/>
      <path class="st0" d="M151.46,74.1c3.81,0,7.09,1.49,9.85,4.46,2.76,2.97,4.14,6.96,4.14,11.96,0,5.26-1.56,9.46-4.68,12.61-3.12,3.14-7.06,4.71-11.8,4.71-1.75,0-3.44-.24-5.07-.71v12.06h-11.48v-44.26h10.58v1.92c2.61-1.84,5.43-2.76,8.47-2.76ZM147.86,98.74c1.67,0,3.08-.73,4.23-2.18,1.15-1.45,1.73-3.44,1.73-5.97,0-2.05-.42-3.79-1.25-5.23-.83-1.43-2.13-2.15-3.88-2.15-1.58,0-3.19.64-4.81,1.92v12.96c1.2.43,2.52.64,3.98.64Z"/>
    </g>
    <g>
      <path class="st0" d="M58.08,128.46c-.34.35-.81.52-1.39.52s-1.05-.17-1.39-.52c-.34-.35-.52-.82-.52-1.42s.17-1.07.52-1.42c.34-.35.81-.53,1.39-.53s1.05.18,1.39.53c.34.35.52.82.52,1.42s-.17,1.07-.52,1.42ZM54.99,139.46v-9.54h3.4v9.54h-3.4Z"/>
      <path class="st0" d="M72.81,129.67c.97,0,1.75.28,2.36.84.6.56.91,1.37.91,2.42v6.53h-3.47v-5.8c0-.42-.07-.74-.22-.95s-.42-.32-.81-.32c-.56,0-1.12.22-1.68.65v6.43h-3.47v-5.8c0-.42-.07-.74-.22-.95-.15-.22-.42-.32-.81-.32-.56,0-1.12.22-1.68.65v6.43h-3.45v-9.54h3.15v.97c1.13-.81,2.28-1.22,3.44-1.22s2.03.41,2.54,1.22c1.13-.81,2.28-1.22,3.44-1.22Z"/>
      <path class="st0" d="M90.43,129.67c.97,0,1.75.28,2.36.84.6.56.91,1.37.91,2.42v6.53h-3.47v-5.8c0-.42-.07-.74-.22-.95s-.42-.32-.81-.32c-.56,0-1.12.22-1.68.65v6.43h-3.47v-5.8c0-.42-.07-.74-.22-.95-.15-.22-.42-.32-.81-.32-.56,0-1.12.22-1.68.65v6.43h-3.45v-9.54h3.15v.97c1.13-.81,2.28-1.22,3.44-1.22s2.03.41,2.54,1.22c1.13-.81,2.28-1.22,3.44-1.22Z"/>
      <path class="st0" d="M100.03,139.71c-1.54,0-2.76-.46-3.65-1.37s-1.34-2.13-1.33-3.64c.01-1.54.46-2.76,1.35-3.66.88-.9,2.1-1.36,3.64-1.36s2.82.45,3.69,1.34c.87.89,1.31,2.12,1.31,3.68s-.45,2.75-1.34,3.65c-.89.91-2.11,1.36-3.66,1.36ZM98.31,134.69c0,1.55.57,2.33,1.72,2.33s1.72-.78,1.72-2.33-.57-2.33-1.72-2.33-1.72.78-1.72,2.33Z"/>
      <path class="st0" d="M112.45,129.78c1.15,0,2.1.41,2.85,1.23.76.82,1.14,1.89,1.14,3.22,0,1.68-.48,3.01-1.45,4-.97.99-2.33,1.48-4.1,1.48-.75,0-1.55-.09-2.4-.27-.85-.18-1.53-.41-2.05-.69v-12.92h3.36v4.79c.81-.56,1.7-.84,2.65-.84ZM110.9,137.04c.7,0,1.22-.23,1.56-.7s.52-1.08.52-1.84c0-1.4-.48-2.1-1.45-2.1-.64,0-1.22.26-1.74.78v3.74c.37.08.74.11,1.11.11Z"/>
      <path class="st0" d="M120.94,128.46c-.34.35-.81.52-1.39.52s-1.05-.17-1.39-.52c-.34-.35-.52-.82-.52-1.42s.17-1.07.52-1.42c.34-.35.81-.53,1.39-.53s1.05.18,1.39.53c.34.35.52.82.52,1.42s-.17,1.07-.52,1.42ZM117.85,139.46v-9.54h3.4v9.54h-3.4Z"/>
      <path class="st0" d="M123.1,139.46v-13.63h3.44v13.63h-3.44Z"/>
      <path class="st0" d="M133.19,137.09c.89,0,1.81-.29,2.77-.86l1.22,2.16c-1.23.87-2.64,1.3-4.22,1.3s-2.86-.48-3.72-1.43c-.87-.95-1.3-2.11-1.3-3.45,0-1.42.46-2.64,1.38-3.64.92-1,2.14-1.5,3.65-1.5,1.22,0,2.23.3,3.03.91.8.6,1.2,1.42,1.2,2.43,0,.84-.26,1.55-.79,2.12-.53.57-1.38.86-2.57.86h-2.79c.32.74,1.02,1.11,2.12,1.11ZM133.04,132.19c-.45,0-.87.14-1.26.42-.39.28-.67.69-.82,1.22h2.06c.39,0,.69-.09.88-.26.19-.17.29-.37.29-.58,0-.23-.1-.42-.31-.57-.21-.15-.49-.23-.83-.23Z"/>
    </g>
  </g>
</svg>