<?xml version="1.0" encoding="UTF-8"?>
<svg id="Camada_1" xmlns="http://www.w3.org/2000/svg" version="1.1" viewBox="0 0 512 512">
  <!-- Generator: Adobe Illustrator 29.8.1, SVG Export Plug-In . SVG Version: 2.1.1 Build 2)  -->
  <defs>
    <style>
      .st0 {
        fill: #fff;
      }

      .st1 {
        fill: #653e91;
      }
    </style>
  </defs>
  <circle class="st1" cx="256.22" cy="256.43" r="393.07"/>
  <g>
    <g>
      <path class="st0" d="M71.93,150.79v17.36h48.63v-17.36c0-16.85,13.71-30.56,30.56-30.56h17.36v-48.63h-17.36c-43.66,0-79.19,35.52-79.19,79.19Z"/>
      <path class="st0" d="M390.73,359.84c0,16.85-13.71,30.56-30.56,30.56h-17.36v48.63h17.36c43.67,0,79.19-35.52,79.19-79.19v-17.36h-48.63v17.36Z"/>
      <path class="st0" d="M360.16,71.6h-17.36v48.63h17.36c16.85,0,30.56,13.71,30.56,30.56v17.36h48.63v-17.36c0-43.66-35.52-79.19-79.19-79.19Z"/>
      <path class="st0" d="M120.56,359.84v-17.36h-48.63v17.36c0,43.66,35.52,79.19,79.19,79.19h17.36v-48.63h-17.36c-16.85,0-30.56-13.71-30.56-30.56Z"/>
    </g>
    <g>
      <path class="st0" d="M111.34,285.8c-14.69,0-26.82-4.12-36.39-12.35l10.68-18.53c8.68,6.12,16.63,9.18,23.87,9.18,2.56,0,4.56-.44,6.01-1.34,1.44-.89,2.17-2,2.17-3.34,0-.56-.11-1.09-.33-1.59-.22-.5-.64-.97-1.25-1.42-.61-.44-1.2-.83-1.75-1.17-.56-.33-1.36-.72-2.42-1.17-1.06-.44-1.98-.81-2.75-1.08-.78-.28-1.86-.64-3.25-1.09-1.39-.44-2.53-.83-3.42-1.17-7.46-2.67-13.16-5.87-17.11-9.6-3.95-3.73-5.93-8.71-5.93-14.94,0-8.57,3.31-15.36,9.93-20.36,6.62-5.01,15.33-7.51,26.12-7.51,13.24,0,24.54,3.4,33.88,10.18l-10.35,18.03c-8.12-4.67-15.36-7.01-21.7-7.01-2.56,0-4.54.42-5.93,1.25-1.39.83-2.09,1.86-2.09,3.09,0,1.45.83,2.62,2.5,3.5,1.67.89,4.56,2.06,8.68,3.51,9.46,3.34,15.86,6.18,19.2,8.51,6.34,4.67,9.51,10.85,9.51,18.53,0,8.68-3.65,15.5-10.93,20.45-7.29,4.95-16.27,7.43-26.96,7.43Z"/>
      <path class="st0" d="M217,198.34c8.79,0,15.75,2.42,20.86,7.26,5.12,4.84,7.68,11.93,7.68,21.28v57.09h-30.21v-50.24c0-7.79-3.06-11.68-9.18-11.68-4.67,0-9.51,1.95-14.52,5.84v56.08h-30.38v-83.46h27.54v7.01c9.12-6.12,18.53-9.18,28.21-9.18Z"/>
      <path class="st0" d="M297.12,198.34c11.46,0,20.75,3.06,27.88,9.18,7.12,6.12,10.68,14.63,10.68,25.54v50.91h-25.71v-8.85c-6.34,7.12-14.69,10.68-25.04,10.68-8.68,0-15.64-2.34-20.86-7.01-5.23-4.67-7.85-10.96-7.85-18.86,0-6.56,2.03-12.02,6.09-16.36,4.06-4.34,9.04-7.34,14.94-9.01,5.9-1.67,12.57-2.5,20.03-2.5,4.34,0,8.07.22,11.18.67,0-4.01-1.36-6.98-4.09-8.93-2.73-1.95-6.15-2.92-10.27-2.92-7.9,0-16.08,2.95-24.54,8.85l-11.18-17.86c4.56-4.12,10.32-7.4,17.28-9.85,6.95-2.45,14.1-3.67,21.45-3.67ZM293.28,264.27c3.89,0,7.26-1.36,10.1-4.09,2.84-2.73,4.48-6.43,4.92-11.1h-9.35c-9.13,0-13.69,2.67-13.69,8.01,0,2.11.69,3.84,2.09,5.17,1.39,1.34,3.36,2,5.93,2Z"/>
      <path class="st0" d="M399.94,198.34c9.9,0,18.44,3.87,25.62,11.6,7.18,7.73,10.77,18.11,10.77,31.13,0,13.69-4.06,24.62-12.19,32.8-8.12,8.18-18.36,12.27-30.71,12.27-4.56,0-8.96-.61-13.19-1.84v31.38h-29.88v-115.17h27.54v5.01c6.79-4.78,14.13-7.18,22.03-7.18ZM390.59,262.44c4.34,0,8.01-1.89,11.02-5.67,3-3.78,4.51-8.96,4.51-15.52,0-5.34-1.08-9.87-3.25-13.6-2.17-3.73-5.54-5.59-10.1-5.59-4.12,0-8.29,1.67-12.52,5.01v33.72c3.11,1.11,6.56,1.67,10.35,1.67Z"/>
    </g>
    <g>
      <path class="st0" d="M156.97,339.77c-.89.91-2.1,1.37-3.63,1.37s-2.73-.45-3.62-1.37c-.89-.91-1.34-2.14-1.34-3.7s.45-2.79,1.34-3.7c.89-.91,2.1-1.37,3.62-1.37s2.73.46,3.63,1.37c.89.91,1.34,2.14,1.34,3.7s-.45,2.79-1.34,3.7ZM148.93,368.4v-24.83h8.84v24.83h-8.84Z"/>
      <path class="st0" d="M195.31,342.92c2.52,0,4.56.73,6.13,2.19,1.57,1.46,2.36,3.56,2.36,6.31v16.98h-9.04v-15.1c0-1.09-.19-1.92-.57-2.48s-1.08-.84-2.11-.84c-1.46,0-2.91.56-4.37,1.69v16.73h-9.04v-15.1c0-1.09-.19-1.92-.57-2.48-.38-.56-1.08-.84-2.11-.84-1.46,0-2.91.56-4.37,1.69v16.73h-8.99v-24.83h8.19v2.53c2.95-2.12,5.93-3.18,8.94-3.18s5.28,1.06,6.6,3.18c2.95-2.12,5.93-3.18,8.94-3.18Z"/>
      <path class="st0" d="M241.14,342.92c2.52,0,4.56.73,6.13,2.19,1.57,1.46,2.36,3.56,2.36,6.31v16.98h-9.04v-15.1c0-1.09-.19-1.92-.57-2.48s-1.08-.84-2.11-.84c-1.46,0-2.91.56-4.37,1.69v16.73h-9.04v-15.1c0-1.09-.19-1.92-.57-2.48-.38-.56-1.08-.84-2.11-.84-1.46,0-2.91.56-4.37,1.69v16.73h-8.99v-24.83h8.19v2.53c2.95-2.12,5.93-3.18,8.94-3.18s5.28,1.06,6.6,3.18c2.95-2.12,5.93-3.18,8.94-3.18Z"/>
      <path class="st0" d="M266.12,369.04c-4.01,0-7.18-1.19-9.51-3.58s-3.48-5.54-3.45-9.48c.03-4.01,1.2-7.18,3.5-9.53,2.3-2.35,5.45-3.53,9.46-3.53s7.34,1.16,9.61,3.48c2.27,2.32,3.4,5.51,3.4,9.58s-1.16,7.14-3.48,9.51c-2.32,2.37-5.5,3.55-9.53,3.55ZM261.65,355.98c0,4.04,1.49,6.06,4.47,6.06s4.47-2.02,4.47-6.06-1.49-6.06-4.47-6.06-4.47,2.02-4.47,6.06Z"/>
      <path class="st0" d="M298.44,343.22c2.98,0,5.45,1.07,7.42,3.2,1.97,2.14,2.95,4.93,2.95,8.37,0,4.37-1.26,7.84-3.77,10.4-2.52,2.57-6.08,3.85-10.68,3.85-1.95,0-4.03-.23-6.23-.7-2.2-.46-3.98-1.06-5.34-1.79v-33.62h8.74v12.46c2.12-1.46,4.42-2.18,6.9-2.18ZM294.42,362.09c1.82,0,3.18-.6,4.07-1.81.89-1.21,1.34-2.81,1.34-4.79,0-3.64-1.26-5.46-3.77-5.46-1.66,0-3.16.68-4.52,2.04v9.73c.96.2,1.92.3,2.88.3Z"/>
      <path class="st0" d="M320.54,339.77c-.89.91-2.1,1.37-3.63,1.37s-2.73-.45-3.62-1.37c-.89-.91-1.34-2.14-1.34-3.7s.45-2.79,1.34-3.7c.89-.91,2.1-1.37,3.62-1.37s2.73.46,3.63,1.37c.89.91,1.34,2.14,1.34,3.7s-.45,2.79-1.34,3.7ZM312.5,368.4v-24.83h8.84v24.83h-8.84Z"/>
      <path class="st0" d="M326.15,368.4v-35.46h8.94v35.46h-8.94Z"/>
      <path class="st0" d="M352.42,362.24c2.32,0,4.72-.74,7.2-2.23l3.18,5.61c-3.21,2.25-6.87,3.38-10.98,3.38s-7.43-1.24-9.68-3.72c-2.25-2.48-3.38-5.48-3.38-8.99,0-3.71,1.2-6.86,3.6-9.46,2.4-2.6,5.57-3.9,9.51-3.9,3.18,0,5.81.79,7.9,2.36,2.09,1.57,3.13,3.68,3.13,6.33,0,2.18-.69,4.02-2.06,5.51-1.37,1.49-3.6,2.23-6.68,2.23h-7.25c.83,1.92,2.66,2.88,5.51,2.88ZM352.03,349.48c-1.16,0-2.25.36-3.28,1.09-1.03.73-1.74,1.79-2.14,3.18h5.36c1.03,0,1.79-.22,2.28-.67.5-.45.74-.95.74-1.51,0-.6-.27-1.09-.82-1.49-.55-.4-1.27-.6-2.16-.6Z"/>
    </g>
  </g>
</svg>