<?xml version="1.0" encoding="UTF-8"?>
<svg id="Camada_1" xmlns="http://www.w3.org/2000/svg" version="1.1" viewBox="0 0 512 512">
  <!-- Generator: Adobe Illustrator 29.8.1, SVG Export Plug-In . SVG Version: 2.1.1 Build 2)  -->
  <defs>
    <style>
      .st0 {
        fill: #6e37a6;
      }

      .st1 {
        fill: #ff4a00;
      }
    </style>
  </defs>
  <g>
    <path class="st0" d="M20.13,121.8v22.29h62.43v-22.29c0-21.64,17.6-39.24,39.24-39.24h22.29V20.13h-22.29c-56.06,0-101.67,45.61-101.67,101.67Z"/>
    <path class="st0" d="M429.44,390.2c0,21.63-17.6,39.24-39.24,39.24h-22.29v62.43h22.29c56.06,0,101.67-45.61,101.67-101.67v-22.29h-62.43v22.29Z"/>
    <path class="st0" d="M390.2,20.13h-22.29v62.43h22.29c21.64,0,39.24,17.6,39.24,39.24v22.29h62.43v-22.29c0-56.06-45.61-101.67-101.67-101.67Z"/>
    <path class="st0" d="M82.56,390.2v-22.29H20.13v22.29c0,56.06,45.61,101.67,101.67,101.67h22.29v-62.43h-22.29c-21.64,0-39.24-17.6-39.24-39.24Z"/>
  </g>
  <g>
    <path class="st0" d="M70.73,295.15c-18.86,0-34.43-5.28-46.72-15.86l13.72-23.79c11.14,7.86,21.36,11.79,30.65,11.79,3.28,0,5.86-.57,7.72-1.71,1.85-1.14,2.79-2.57,2.79-4.29,0-.71-.14-1.39-.43-2.04-.29-.64-.82-1.25-1.61-1.82-.79-.57-1.54-1.07-2.25-1.5-.72-.43-1.75-.93-3.11-1.5-1.36-.57-2.54-1.03-3.54-1.39-1-.35-2.39-.82-4.18-1.39-1.79-.57-3.25-1.07-4.39-1.5-9.57-3.43-16.9-7.53-21.97-12.32-5.07-4.79-7.61-11.18-7.61-19.18,0-11,4.25-19.72,12.75-26.15,8.5-6.43,19.68-9.64,33.54-9.64,17,0,31.5,4.36,43.5,13.07l-13.29,23.15c-10.43-6-19.72-9-27.86-9-3.29,0-5.82.54-7.61,1.61-1.79,1.07-2.68,2.39-2.68,3.96,0,1.86,1.07,3.36,3.21,4.5,2.14,1.15,5.86,2.65,11.14,4.5,12.14,4.29,20.36,7.93,24.65,10.93,8.14,6,12.21,13.93,12.21,23.79,0,11.14-4.68,19.9-14.04,26.25-9.36,6.36-20.89,9.54-34.61,9.54Z"/>
    <path class="st0" d="M206.39,182.85c11.29,0,20.22,3.11,26.79,9.32,6.57,6.21,9.86,15.32,9.86,27.32v73.29h-38.79v-64.51c0-10-3.93-15-11.79-15-6,0-12.21,2.5-18.64,7.5v72.01h-39v-107.15h35.36v9c11.71-7.86,23.79-11.79,36.22-11.79Z"/>
    <path class="st0" d="M309.25,182.85c14.71,0,26.64,3.93,35.79,11.79,9.14,7.86,13.72,18.79,13.72,32.79v65.36h-33v-11.36c-8.14,9.14-18.86,13.72-32.15,13.72-11.14,0-20.07-3-26.79-9-6.72-6-10.07-14.07-10.07-24.22,0-8.43,2.61-15.43,7.82-21,5.21-5.57,11.61-9.43,19.18-11.57,7.57-2.14,16.14-3.21,25.72-3.21,5.57,0,10.36.29,14.36.86,0-5.14-1.75-8.96-5.25-11.46-3.5-2.5-7.9-3.75-13.18-3.75-10.15,0-20.65,3.79-31.5,11.36l-14.36-22.93c5.86-5.28,13.25-9.5,22.18-12.64,8.93-3.14,18.11-4.71,27.54-4.71ZM304.33,267.5c5,0,9.32-1.75,12.97-5.25,3.64-3.5,5.75-8.25,6.32-14.25h-12c-11.72,0-17.57,3.43-17.57,10.29,0,2.72.89,4.93,2.68,6.64,1.78,1.71,4.32,2.57,7.61,2.57Z"/>
    <path class="st0" d="M441.26,182.85c12.71,0,23.68,4.97,32.9,14.89,9.22,9.93,13.82,23.25,13.82,39.97,0,17.57-5.22,31.61-15.64,42.11-10.43,10.5-23.57,15.75-39.43,15.75-5.86,0-11.5-.79-16.93-2.36v40.29h-38.36v-147.87h35.36v6.43c8.71-6.14,18.14-9.22,28.29-9.22ZM429.26,265.14c5.57,0,10.29-2.43,14.14-7.29,3.86-4.86,5.79-11.5,5.79-19.93,0-6.86-1.39-12.68-4.18-17.47-2.79-4.79-7.11-7.18-12.97-7.18-5.29,0-10.64,2.14-16.07,6.43v43.29c4,1.43,8.43,2.14,13.29,2.14Z"/>
  </g>
  <g>
    <path class="st1" d="M129.32,364.43c-1.15,1.17-2.7,1.75-4.65,1.75s-3.51-.58-4.65-1.75c-1.15-1.17-1.72-2.75-1.72-4.75s.57-3.58,1.72-4.75c1.15-1.17,2.7-1.75,4.65-1.75s3.51.59,4.65,1.75c1.15,1.17,1.72,2.75,1.72,4.75s-.57,3.58-1.72,4.75ZM118.99,401.19v-31.88h11.35v31.88h-11.35Z"/>
    <path class="st1" d="M178.54,368.48c3.23,0,5.85.94,7.87,2.81,2.02,1.87,3.03,4.57,3.03,8.1v21.8h-11.6v-19.38c0-1.4-.24-2.46-.73-3.19s-1.39-1.08-2.71-1.08c-1.87,0-3.74.72-5.61,2.17v21.49h-11.6v-19.38c0-1.4-.24-2.46-.73-3.19-.49-.72-1.39-1.08-2.71-1.08-1.87,0-3.74.72-5.61,2.17v21.49h-11.54v-31.88h10.52v3.25c3.78-2.72,7.61-4.08,11.48-4.08s6.78,1.36,8.48,4.08c3.78-2.72,7.61-4.08,11.48-4.08Z"/>
    <path class="st1" d="M237.38,368.48c3.23,0,5.85.94,7.87,2.81,2.02,1.87,3.03,4.57,3.03,8.1v21.8h-11.6v-19.38c0-1.4-.24-2.46-.73-3.19s-1.39-1.08-2.71-1.08c-1.87,0-3.74.72-5.61,2.17v21.49h-11.6v-19.38c0-1.4-.24-2.46-.73-3.19-.49-.72-1.39-1.08-2.71-1.08-1.87,0-3.74.72-5.61,2.17v21.49h-11.54v-31.88h10.52v3.25c3.78-2.72,7.61-4.08,11.48-4.08s6.78,1.36,8.48,4.08c3.78-2.72,7.61-4.08,11.48-4.08Z"/>
    <path class="st1" d="M269.45,402.02c-5.14,0-9.21-1.53-12.21-4.59s-4.47-7.12-4.43-12.18c.04-5.14,1.54-9.22,4.5-12.24,2.95-3.02,7-4.53,12.15-4.53s9.42,1.49,12.34,4.46c2.91,2.98,4.37,7.08,4.37,12.31s-1.49,9.17-4.46,12.21c-2.98,3.04-7.06,4.56-12.24,4.56ZM263.71,385.25c0,5.19,1.91,7.78,5.74,7.78s5.74-2.59,5.74-7.78-1.91-7.78-5.74-7.78-5.74,2.59-5.74,7.78Z"/>
    <path class="st1" d="M310.96,368.87c3.83,0,7,1.37,9.53,4.11,2.53,2.74,3.79,6.32,3.79,10.74,0,5.61-1.62,10.06-4.85,13.36-3.23,3.29-7.8,4.94-13.71,4.94-2.51,0-5.18-.3-8-.89-2.83-.59-5.11-1.36-6.85-2.3v-43.16h11.22v16c2.72-1.87,5.67-2.8,8.86-2.8ZM305.79,393.09c2.34,0,4.08-.78,5.23-2.33s1.72-3.6,1.72-6.15c0-4.68-1.62-7.01-4.85-7.01-2.13,0-4.06.87-5.8,2.61v12.5c1.23.25,2.46.38,3.7.38Z"/>
    <path class="st1" d="M339.33,364.43c-1.15,1.17-2.7,1.75-4.65,1.75s-3.51-.58-4.65-1.75c-1.15-1.17-1.72-2.75-1.72-4.75s.57-3.58,1.72-4.75c1.15-1.17,2.7-1.75,4.65-1.75s3.51.59,4.65,1.75c1.15,1.17,1.72,2.75,1.72,4.75s-.57,3.58-1.72,4.75ZM329,401.19v-31.88h11.35v31.88h-11.35Z"/>
    <path class="st1" d="M346.53,401.19v-45.52h11.48v45.52h-11.48Z"/>
    <path class="st1" d="M380.26,393.28c2.97,0,6.06-.96,9.24-2.87l4.08,7.2c-4.12,2.89-8.82,4.34-14.09,4.34s-9.54-1.59-12.43-4.78c-2.89-3.19-4.34-7.03-4.34-11.54,0-4.76,1.54-8.81,4.62-12.15,3.08-3.34,7.15-5.01,12.21-5.01,4.08,0,7.46,1.01,10.14,3.03,2.68,2.02,4.02,4.73,4.02,8.13,0,2.8-.88,5.16-2.65,7.08-1.76,1.91-4.62,2.87-8.58,2.87h-9.31c1.06,2.46,3.42,3.7,7.08,3.7ZM379.75,376.9c-1.49,0-2.89.47-4.21,1.4-1.32.94-2.23,2.3-2.74,4.08h6.89c1.32,0,2.3-.29,2.93-.86.64-.57.96-1.22.96-1.94,0-.77-.35-1.4-1.05-1.91-.7-.51-1.63-.76-2.77-.76Z"/>
  </g>
</svg>